<?xml version="1.0" standalone="no"?><svg xmlns="http://www.w3.org/2000/svg" viewBox="0 0 1440 320"><path fill="#0099ff" fill-opacity="1" d="M0,0L18.5,5.3C36.9,11,74,21,111,53.3C147.7,85,185,139,222,186.7C258.5,235,295,277,332,266.7C369.2,256,406,192,443,170.7C480,149,517,171,554,192C590.8,213,628,235,665,229.3C701.5,224,738,192,775,202.7C812.3,213,849,267,886,245.3C923.1,224,960,128,997,112C1033.8,96,1071,160,1108,181.3C1144.6,203,1182,181,1218,192C1255.4,203,1292,245,1329,234.7C1366.2,224,1403,160,1422,128L1440,96L1440,320L1421.5,320C1403.1,320,1366,320,1329,320C1292.3,320,1255,320,1218,320C1181.5,320,1145,320,1108,320C1070.8,320,1034,320,997,320C960,320,923,320,886,320C849.2,320,812,320,775,320C738.5,320,702,320,665,320C627.7,320,591,320,554,320C516.9,320,480,320,443,320C406.2,320,369,320,332,320C295.4,320,258,320,222,320C184.6,320,148,320,111,320C73.8,320,37,320,18,320L0,320Z"></path></svg>